<mxfile host="Electron" modified="2023-10-11T06:59:01.290Z" agent="Mozilla/5.0 (Windows NT 10.0; Win64; x64) AppleWebKit/537.36 (KHTML, like Gecko) draw.io/22.0.2 Chrome/114.0.5735.289 Electron/25.8.4 Safari/537.36" etag="-dP9YXKYoXHS5CU-VGUw" version="22.0.2" type="device">
  <diagram name="Page-1" id="sKuAQNxoBss62TvX7HFl">
    <mxGraphModel dx="843" dy="932" grid="1" gridSize="10" guides="1" tooltips="1" connect="1" arrows="1" fold="1" page="1" pageScale="1" pageWidth="850" pageHeight="1100" math="0" shadow="0">
      <root>
        <mxCell id="0" />
        <mxCell id="1" parent="0" />
        <mxCell id="3EsMmoUdwAtE5bACH4K3-32" value="" style="edgeStyle=orthogonalEdgeStyle;rounded=1;orthogonalLoop=1;jettySize=auto;html=1;" parent="1" edge="1">
          <mxGeometry relative="1" as="geometry">
            <mxPoint x="355" y="70" as="sourcePoint" />
            <mxPoint x="355" y="100" as="targetPoint" />
          </mxGeometry>
        </mxCell>
        <mxCell id="3EsMmoUdwAtE5bACH4K3-3" value="INPUT&lt;br&gt;kodebanrang&lt;br&gt;integer" style="shape=parallelogram;html=1;strokeWidth=2;perimeter=parallelogramPerimeter;whiteSpace=wrap;rounded=1;arcSize=12;size=0.23;" parent="1" vertex="1">
          <mxGeometry x="263" y="219" width="175" height="70" as="geometry" />
        </mxCell>
        <mxCell id="3EsMmoUdwAtE5bACH4K3-6" value="kodebarang&lt;br&gt;2302" style="strokeWidth=2;html=1;shape=mxgraph.flowchart.decision;whiteSpace=wrap;rounded=1;" parent="1" vertex="1">
          <mxGeometry x="283.5" y="320" width="150" height="100" as="geometry" />
        </mxCell>
        <mxCell id="3EsMmoUdwAtE5bACH4K3-8" value="kodebarang&lt;br&gt;2301" style="strokeWidth=2;html=1;shape=mxgraph.flowchart.decision;whiteSpace=wrap;rounded=1;" parent="1" vertex="1">
          <mxGeometry x="68" y="320" width="150" height="100" as="geometry" />
        </mxCell>
        <mxCell id="3EsMmoUdwAtE5bACH4K3-9" value="Nama Barang&lt;br&gt;Mie Instant" style="rounded=1;whiteSpace=wrap;html=1;absoluteArcSize=1;arcSize=14;strokeWidth=2;" parent="1" vertex="1">
          <mxGeometry x="50" y="480" width="190" height="80" as="geometry" />
        </mxCell>
        <mxCell id="3EsMmoUdwAtE5bACH4K3-11" value="Nama Barang&lt;br&gt;Minuman Dingin" style="rounded=1;whiteSpace=wrap;html=1;absoluteArcSize=1;arcSize=14;strokeWidth=2;" parent="1" vertex="1">
          <mxGeometry x="270" y="480" width="190" height="80" as="geometry" />
        </mxCell>
        <mxCell id="3EsMmoUdwAtE5bACH4K3-12" value="hargabarang&lt;br&gt;3000" style="rounded=1;whiteSpace=wrap;html=1;absoluteArcSize=1;arcSize=14;strokeWidth=2;" parent="1" vertex="1">
          <mxGeometry x="50" y="600" width="190" height="80" as="geometry" />
        </mxCell>
        <mxCell id="3EsMmoUdwAtE5bACH4K3-13" value="hargabarang&lt;br&gt;2500" style="rounded=1;whiteSpace=wrap;html=1;absoluteArcSize=1;arcSize=14;strokeWidth=2;" parent="1" vertex="1">
          <mxGeometry x="270" y="600" width="190" height="80" as="geometry" />
        </mxCell>
        <mxCell id="3EsMmoUdwAtE5bACH4K3-16" value="INPUT&lt;br&gt;jumlahbarang&lt;br&gt;integer" style="shape=parallelogram;html=1;strokeWidth=2;perimeter=parallelogramPerimeter;whiteSpace=wrap;rounded=1;arcSize=12;size=0.23;" parent="1" vertex="1">
          <mxGeometry x="57.5" y="720" width="175" height="70" as="geometry" />
        </mxCell>
        <mxCell id="3EsMmoUdwAtE5bACH4K3-17" value="jumlahbarang&lt;br&gt;&amp;lt;0" style="strokeWidth=2;html=1;shape=mxgraph.flowchart.decision;whiteSpace=wrap;rounded=1;" parent="1" vertex="1">
          <mxGeometry x="70" y="830" width="150" height="100" as="geometry" />
        </mxCell>
        <mxCell id="3EsMmoUdwAtE5bACH4K3-18" value="jumlahseluruhnya=&lt;br&gt;totalharga1+totalharga2" style="rounded=1;whiteSpace=wrap;html=1;absoluteArcSize=1;arcSize=14;strokeWidth=2;" parent="1" vertex="1">
          <mxGeometry x="50" y="1090" width="190" height="190" as="geometry" />
        </mxCell>
        <mxCell id="3EsMmoUdwAtE5bACH4K3-19" value="totalharga1=&lt;br&gt;jumlahbarang+hargabarang" style="rounded=1;whiteSpace=wrap;html=1;absoluteArcSize=1;arcSize=14;strokeWidth=2;" parent="1" vertex="1">
          <mxGeometry x="50" y="960" width="190" height="80" as="geometry" />
        </mxCell>
        <mxCell id="3EsMmoUdwAtE5bACH4K3-20" value="&lt;br&gt;&lt;span style=&quot;color: rgb(0, 0, 0); font-family: Helvetica; font-size: 12px; font-style: normal; font-variant-ligatures: normal; font-variant-caps: normal; font-weight: 400; letter-spacing: normal; orphans: 2; text-align: center; text-indent: 0px; text-transform: none; widows: 2; word-spacing: 0px; -webkit-text-stroke-width: 0px; background-color: rgb(251, 251, 251); text-decoration-thickness: initial; text-decoration-style: initial; text-decoration-color: initial; float: none; display: inline !important;&quot;&gt;totalharga2=&lt;/span&gt;&lt;br style=&quot;border-color: var(--border-color); color: rgb(0, 0, 0); font-family: Helvetica; font-size: 12px; font-style: normal; font-variant-ligatures: normal; font-variant-caps: normal; font-weight: 400; letter-spacing: normal; orphans: 2; text-align: center; text-indent: 0px; text-transform: none; widows: 2; word-spacing: 0px; -webkit-text-stroke-width: 0px; background-color: rgb(251, 251, 251); text-decoration-thickness: initial; text-decoration-style: initial; text-decoration-color: initial;&quot;&gt;&lt;span style=&quot;color: rgb(0, 0, 0); font-family: Helvetica; font-size: 12px; font-style: normal; font-variant-ligatures: normal; font-variant-caps: normal; font-weight: 400; letter-spacing: normal; orphans: 2; text-align: center; text-indent: 0px; text-transform: none; widows: 2; word-spacing: 0px; -webkit-text-stroke-width: 0px; background-color: rgb(251, 251, 251); text-decoration-thickness: initial; text-decoration-style: initial; text-decoration-color: initial; float: none; display: inline !important;&quot;&gt;jumlahbarang+hargabarang&lt;/span&gt;&lt;br&gt;" style="rounded=1;whiteSpace=wrap;html=1;absoluteArcSize=1;arcSize=14;strokeWidth=2;" parent="1" vertex="1">
          <mxGeometry x="270" y="960" width="190" height="80" as="geometry" />
        </mxCell>
        <mxCell id="3EsMmoUdwAtE5bACH4K3-21" value="INPUT&lt;br&gt;pebayaran" style="shape=parallelogram;html=1;strokeWidth=2;perimeter=parallelogramPerimeter;whiteSpace=wrap;rounded=1;arcSize=12;size=0.23;" parent="1" vertex="1">
          <mxGeometry x="30" y="1330" width="222.5" height="100" as="geometry" />
        </mxCell>
        <mxCell id="3EsMmoUdwAtE5bACH4K3-22" value="Jumlahseluruhnya&lt;br&gt;&amp;gt;=100000" style="strokeWidth=2;html=1;shape=mxgraph.flowchart.decision;whiteSpace=wrap;rounded=1;" parent="1" vertex="1">
          <mxGeometry x="61" y="1480" width="170" height="122.5" as="geometry" />
        </mxCell>
        <mxCell id="3EsMmoUdwAtE5bACH4K3-23" value="uangkembalian=&lt;br&gt;pembayaran-jumlahseluruhnya" style="rounded=1;whiteSpace=wrap;html=1;absoluteArcSize=1;arcSize=14;strokeWidth=2;" parent="1" vertex="1">
          <mxGeometry x="308.75" y="1470" width="240" height="130" as="geometry" />
        </mxCell>
        <mxCell id="3EsMmoUdwAtE5bACH4K3-24" value="OUTPUT&lt;br&gt;namabarang, totalharga, uangkembalian, pembayaran, jumlahseluruhnya" style="strokeWidth=2;html=1;shape=mxgraph.flowchart.document2;whiteSpace=wrap;size=0.25;rounded=1;" parent="1" vertex="1">
          <mxGeometry x="630" y="1480" width="230" height="145" as="geometry" />
        </mxCell>
        <mxCell id="3EsMmoUdwAtE5bACH4K3-27" value="hargadiskon=&lt;br&gt;jumlahseluruhnya-(jumlahseluruhnya*0.1)" style="rounded=1;whiteSpace=wrap;html=1;absoluteArcSize=1;arcSize=14;strokeWidth=2;" parent="1" vertex="1">
          <mxGeometry x="18" y="1680" width="240" height="130" as="geometry" />
        </mxCell>
        <mxCell id="3EsMmoUdwAtE5bACH4K3-28" value="uangkembalian=&lt;br&gt;pembayaran-hargadiskon" style="rounded=1;whiteSpace=wrap;html=1;absoluteArcSize=1;arcSize=14;strokeWidth=2;" parent="1" vertex="1">
          <mxGeometry x="22" y="1870" width="240" height="130" as="geometry" />
        </mxCell>
        <mxCell id="3EsMmoUdwAtE5bACH4K3-30" value="" style="endArrow=classic;html=1;rounded=1;entryX=0.5;entryY=0;entryDx=0;entryDy=0;exitX=0.5;exitY=1;exitDx=0;exitDy=0;exitPerimeter=0;" parent="1" edge="1">
          <mxGeometry width="50" height="50" relative="1" as="geometry">
            <mxPoint x="355" y="70" as="sourcePoint" />
            <mxPoint x="355" y="100" as="targetPoint" />
          </mxGeometry>
        </mxCell>
        <mxCell id="3EsMmoUdwAtE5bACH4K3-35" value="" style="endArrow=classic;html=1;rounded=1;entryX=0.524;entryY=0.017;entryDx=0;entryDy=0;entryPerimeter=0;exitX=0.5;exitY=1;exitDx=0;exitDy=0;" parent="1" target="3EsMmoUdwAtE5bACH4K3-3" edge="1">
          <mxGeometry width="50" height="50" relative="1" as="geometry">
            <mxPoint x="355" y="180" as="sourcePoint" />
            <mxPoint x="370" y="110" as="targetPoint" />
          </mxGeometry>
        </mxCell>
        <mxCell id="3EsMmoUdwAtE5bACH4K3-36" value="true" style="endArrow=classic;html=1;rounded=1;entryX=0.5;entryY=0;entryDx=0;entryDy=0;entryPerimeter=0;exitX=0;exitY=0.25;exitDx=0;exitDy=0;" parent="1" source="3EsMmoUdwAtE5bACH4K3-3" target="3EsMmoUdwAtE5bACH4K3-8" edge="1">
          <mxGeometry width="50" height="50" relative="1" as="geometry">
            <mxPoint x="190" y="240" as="sourcePoint" />
            <mxPoint x="370" y="240" as="targetPoint" />
            <Array as="points">
              <mxPoint x="143" y="240" />
            </Array>
          </mxGeometry>
        </mxCell>
        <mxCell id="3EsMmoUdwAtE5bACH4K3-38" value="flase" style="endArrow=classic;html=1;rounded=1;entryX=0;entryY=0.5;entryDx=0;entryDy=0;entryPerimeter=0;exitX=1;exitY=0.5;exitDx=0;exitDy=0;exitPerimeter=0;" parent="1" source="3EsMmoUdwAtE5bACH4K3-8" target="3EsMmoUdwAtE5bACH4K3-6" edge="1">
          <mxGeometry width="50" height="50" relative="1" as="geometry">
            <mxPoint x="300" y="280" as="sourcePoint" />
            <mxPoint x="350" y="230" as="targetPoint" />
          </mxGeometry>
        </mxCell>
        <mxCell id="3EsMmoUdwAtE5bACH4K3-39" value="true" style="endArrow=classic;html=1;rounded=1;entryX=0.467;entryY=-0.021;entryDx=0;entryDy=0;entryPerimeter=0;exitX=0.5;exitY=1;exitDx=0;exitDy=0;exitPerimeter=0;" parent="1" edge="1">
          <mxGeometry width="50" height="50" relative="1" as="geometry">
            <mxPoint x="358.26" y="421.68" as="sourcePoint" />
            <mxPoint x="358.49" y="480.00000000000006" as="targetPoint" />
          </mxGeometry>
        </mxCell>
        <mxCell id="3EsMmoUdwAtE5bACH4K3-40" value="true" style="endArrow=classic;html=1;rounded=1;entryX=0.5;entryY=0;entryDx=0;entryDy=0;" parent="1" edge="1">
          <mxGeometry width="50" height="50" relative="1" as="geometry">
            <mxPoint x="143" y="420" as="sourcePoint" />
            <mxPoint x="143" y="480" as="targetPoint" />
          </mxGeometry>
        </mxCell>
        <mxCell id="3EsMmoUdwAtE5bACH4K3-42" value="START" style="strokeWidth=2;html=1;shape=mxgraph.flowchart.terminator;whiteSpace=wrap;rounded=1;" parent="1" vertex="1">
          <mxGeometry x="305" y="10" width="100" height="60" as="geometry" />
        </mxCell>
        <mxCell id="3EsMmoUdwAtE5bACH4K3-43" value="false" style="endArrow=classic;html=1;rounded=1;exitX=1;exitY=0.5;exitDx=0;exitDy=0;exitPerimeter=0;" parent="1" source="3EsMmoUdwAtE5bACH4K3-6" edge="1">
          <mxGeometry width="50" height="50" relative="1" as="geometry">
            <mxPoint x="530" y="430" as="sourcePoint" />
            <mxPoint x="360" y="210" as="targetPoint" />
            <Array as="points">
              <mxPoint x="640" y="370" />
              <mxPoint x="640" y="210" />
              <mxPoint x="360" y="210" />
            </Array>
          </mxGeometry>
        </mxCell>
        <mxCell id="3EsMmoUdwAtE5bACH4K3-45" value="" style="endArrow=classic;html=1;rounded=1;exitX=0.5;exitY=1;exitDx=0;exitDy=0;entryX=0.5;entryY=0;entryDx=0;entryDy=0;" parent="1" source="3EsMmoUdwAtE5bACH4K3-9" target="3EsMmoUdwAtE5bACH4K3-12" edge="1">
          <mxGeometry width="50" height="50" relative="1" as="geometry">
            <mxPoint x="450" y="430" as="sourcePoint" />
            <mxPoint x="500" y="380" as="targetPoint" />
          </mxGeometry>
        </mxCell>
        <mxCell id="3EsMmoUdwAtE5bACH4K3-46" value="" style="endArrow=classic;html=1;rounded=1;exitX=0.5;exitY=1;exitDx=0;exitDy=0;entryX=0.502;entryY=-0.025;entryDx=0;entryDy=0;entryPerimeter=0;" parent="1" source="3EsMmoUdwAtE5bACH4K3-11" target="3EsMmoUdwAtE5bACH4K3-13" edge="1">
          <mxGeometry width="50" height="50" relative="1" as="geometry">
            <mxPoint x="250" y="560" as="sourcePoint" />
            <mxPoint x="300" y="510" as="targetPoint" />
            <Array as="points" />
          </mxGeometry>
        </mxCell>
        <mxCell id="3EsMmoUdwAtE5bACH4K3-47" value="" style="endArrow=classic;html=1;rounded=1;entryX=0.5;entryY=0;entryDx=0;entryDy=0;exitX=0.5;exitY=1;exitDx=0;exitDy=0;" parent="1" source="3EsMmoUdwAtE5bACH4K3-12" target="3EsMmoUdwAtE5bACH4K3-16" edge="1">
          <mxGeometry width="50" height="50" relative="1" as="geometry">
            <mxPoint x="240" y="620" as="sourcePoint" />
            <mxPoint x="290" y="570" as="targetPoint" />
          </mxGeometry>
        </mxCell>
        <mxCell id="3EsMmoUdwAtE5bACH4K3-48" value="" style="endArrow=classic;html=1;rounded=1;entryX=0.5;entryY=0;entryDx=0;entryDy=0;entryPerimeter=0;exitX=0.5;exitY=1;exitDx=0;exitDy=0;" parent="1" source="3EsMmoUdwAtE5bACH4K3-16" target="3EsMmoUdwAtE5bACH4K3-17" edge="1">
          <mxGeometry width="50" height="50" relative="1" as="geometry">
            <mxPoint x="140" y="910" as="sourcePoint" />
            <mxPoint x="190" y="860" as="targetPoint" />
          </mxGeometry>
        </mxCell>
        <mxCell id="3EsMmoUdwAtE5bACH4K3-49" value="" style="endArrow=classic;html=1;rounded=1;exitX=0.525;exitY=1.003;exitDx=0;exitDy=0;exitPerimeter=0;" parent="1" edge="1">
          <mxGeometry width="50" height="50" relative="1" as="geometry">
            <mxPoint x="379.75" y="680" as="sourcePoint" />
            <mxPoint x="150" y="699.76" as="targetPoint" />
            <Array as="points">
              <mxPoint x="380" y="699.76" />
            </Array>
          </mxGeometry>
        </mxCell>
        <mxCell id="3EsMmoUdwAtE5bACH4K3-50" value="false" style="endArrow=classic;html=1;rounded=1;exitX=0;exitY=0.5;exitDx=0;exitDy=0;exitPerimeter=0;" parent="1" source="3EsMmoUdwAtE5bACH4K3-17" edge="1">
          <mxGeometry width="50" height="50" relative="1" as="geometry">
            <mxPoint x="60" y="880.0000000000001" as="sourcePoint" />
            <mxPoint x="140" y="700" as="targetPoint" />
            <Array as="points">
              <mxPoint x="30" y="880" />
              <mxPoint x="30" y="700" />
            </Array>
          </mxGeometry>
        </mxCell>
        <mxCell id="3EsMmoUdwAtE5bACH4K3-51" value="true" style="endArrow=classic;html=1;rounded=1;exitX=0.5;exitY=1;exitDx=0;exitDy=0;exitPerimeter=0;entryX=0.5;entryY=0;entryDx=0;entryDy=0;" parent="1" source="3EsMmoUdwAtE5bACH4K3-17" target="3EsMmoUdwAtE5bACH4K3-19" edge="1">
          <mxGeometry width="50" height="50" relative="1" as="geometry">
            <mxPoint x="330" y="1340" as="sourcePoint" />
            <mxPoint x="380" y="1290" as="targetPoint" />
          </mxGeometry>
        </mxCell>
        <mxCell id="3EsMmoUdwAtE5bACH4K3-52" value="" style="endArrow=classic;html=1;rounded=1;entryX=0.577;entryY=-0.014;entryDx=0;entryDy=0;entryPerimeter=0;" parent="1" target="3EsMmoUdwAtE5bACH4K3-20" edge="1">
          <mxGeometry width="50" height="50" relative="1" as="geometry">
            <mxPoint x="140" y="940" as="sourcePoint" />
            <mxPoint x="380" y="940" as="targetPoint" />
            <Array as="points">
              <mxPoint x="380" y="940" />
            </Array>
          </mxGeometry>
        </mxCell>
        <mxCell id="3EsMmoUdwAtE5bACH4K3-53" value="" style="endArrow=classic;html=1;rounded=1;exitX=0.5;exitY=1;exitDx=0;exitDy=0;entryX=0.5;entryY=0;entryDx=0;entryDy=0;" parent="1" source="3EsMmoUdwAtE5bACH4K3-19" target="3EsMmoUdwAtE5bACH4K3-18" edge="1">
          <mxGeometry width="50" height="50" relative="1" as="geometry">
            <mxPoint x="260" y="1250" as="sourcePoint" />
            <mxPoint x="310" y="1200" as="targetPoint" />
          </mxGeometry>
        </mxCell>
        <mxCell id="3EsMmoUdwAtE5bACH4K3-54" value="" style="endArrow=classic;html=1;rounded=1;exitX=0.581;exitY=1.014;exitDx=0;exitDy=0;exitPerimeter=0;entryX=1.003;entryY=0.584;entryDx=0;entryDy=0;entryPerimeter=0;" parent="1" source="3EsMmoUdwAtE5bACH4K3-20" target="3EsMmoUdwAtE5bACH4K3-18" edge="1">
          <mxGeometry width="50" height="50" relative="1" as="geometry">
            <mxPoint x="260" y="1250" as="sourcePoint" />
            <mxPoint x="250" y="1200" as="targetPoint" />
            <Array as="points">
              <mxPoint x="380" y="1200" />
            </Array>
          </mxGeometry>
        </mxCell>
        <mxCell id="3EsMmoUdwAtE5bACH4K3-55" value="" style="endArrow=classic;html=1;rounded=1;exitX=0.524;exitY=0.991;exitDx=0;exitDy=0;entryX=0.537;entryY=0.003;entryDx=0;entryDy=0;entryPerimeter=0;exitPerimeter=0;" parent="1" source="3EsMmoUdwAtE5bACH4K3-18" target="3EsMmoUdwAtE5bACH4K3-21" edge="1">
          <mxGeometry width="50" height="50" relative="1" as="geometry">
            <mxPoint x="100" y="1340" as="sourcePoint" />
            <mxPoint x="150" y="1290" as="targetPoint" />
          </mxGeometry>
        </mxCell>
        <mxCell id="3EsMmoUdwAtE5bACH4K3-56" value="" style="endArrow=classic;html=1;rounded=1;exitX=0.522;exitY=1.013;exitDx=0;exitDy=0;exitPerimeter=0;entryX=0.5;entryY=0;entryDx=0;entryDy=0;entryPerimeter=0;" parent="1" source="3EsMmoUdwAtE5bACH4K3-21" target="3EsMmoUdwAtE5bACH4K3-22" edge="1">
          <mxGeometry width="50" height="50" relative="1" as="geometry">
            <mxPoint x="110" y="1440" as="sourcePoint" />
            <mxPoint x="160" y="1390" as="targetPoint" />
          </mxGeometry>
        </mxCell>
        <mxCell id="3EsMmoUdwAtE5bACH4K3-57" value="" style="endArrow=classic;html=1;rounded=1;entryX=0.535;entryY=0.001;entryDx=0;entryDy=0;exitX=0.5;exitY=1;exitDx=0;exitDy=0;exitPerimeter=0;entryPerimeter=0;" parent="1" source="3EsMmoUdwAtE5bACH4K3-22" target="3EsMmoUdwAtE5bACH4K3-27" edge="1">
          <mxGeometry width="50" height="50" relative="1" as="geometry">
            <mxPoint x="10" y="1540" as="sourcePoint" />
            <mxPoint x="60" y="1490" as="targetPoint" />
          </mxGeometry>
        </mxCell>
        <mxCell id="3EsMmoUdwAtE5bACH4K3-58" value="" style="endArrow=classic;html=1;rounded=1;entryX=0.541;entryY=0.006;entryDx=0;entryDy=0;exitX=0.558;exitY=0.992;exitDx=0;exitDy=0;exitPerimeter=0;entryPerimeter=0;" parent="1" source="3EsMmoUdwAtE5bACH4K3-27" target="3EsMmoUdwAtE5bACH4K3-28" edge="1">
          <mxGeometry width="50" height="50" relative="1" as="geometry">
            <mxPoint x="-20" y="1700" as="sourcePoint" />
            <mxPoint x="30" y="1650" as="targetPoint" />
          </mxGeometry>
        </mxCell>
        <mxCell id="3EsMmoUdwAtE5bACH4K3-59" value="false" style="endArrow=classic;html=1;rounded=1;exitX=1;exitY=0.5;exitDx=0;exitDy=0;exitPerimeter=0;" parent="1" source="3EsMmoUdwAtE5bACH4K3-22" edge="1">
          <mxGeometry width="50" height="50" relative="1" as="geometry">
            <mxPoint x="480" y="1600" as="sourcePoint" />
            <mxPoint x="310" y="1541" as="targetPoint" />
          </mxGeometry>
        </mxCell>
        <mxCell id="3EsMmoUdwAtE5bACH4K3-60" value="" style="endArrow=classic;html=1;rounded=1;exitX=1.005;exitY=0.616;exitDx=0;exitDy=0;exitPerimeter=0;entryX=0;entryY=0.483;entryDx=0;entryDy=0;entryPerimeter=0;" parent="1" source="3EsMmoUdwAtE5bACH4K3-23" target="3EsMmoUdwAtE5bACH4K3-24" edge="1">
          <mxGeometry width="50" height="50" relative="1" as="geometry">
            <mxPoint x="550" y="1550" as="sourcePoint" />
            <mxPoint x="600" y="1560" as="targetPoint" />
          </mxGeometry>
        </mxCell>
        <mxCell id="3EsMmoUdwAtE5bACH4K3-61" value="END" style="strokeWidth=2;html=1;shape=mxgraph.flowchart.terminator;whiteSpace=wrap;rounded=1;" parent="1" vertex="1">
          <mxGeometry x="920" y="1488" width="210" height="102" as="geometry" />
        </mxCell>
        <mxCell id="3EsMmoUdwAtE5bACH4K3-62" value="" style="endArrow=classic;html=1;rounded=1;exitX=1;exitY=0.483;exitDx=0;exitDy=0;exitPerimeter=0;entryX=0;entryY=0.603;entryDx=0;entryDy=0;entryPerimeter=0;" parent="1" source="3EsMmoUdwAtE5bACH4K3-24" target="3EsMmoUdwAtE5bACH4K3-61" edge="1">
          <mxGeometry width="50" height="50" relative="1" as="geometry">
            <mxPoint x="650" y="1510" as="sourcePoint" />
            <mxPoint x="700" y="1470" as="targetPoint" />
          </mxGeometry>
        </mxCell>
        <mxCell id="3EsMmoUdwAtE5bACH4K3-63" value="" style="endArrow=classic;html=1;rounded=1;exitX=1;exitY=0.5;exitDx=0;exitDy=0;" parent="1" source="3EsMmoUdwAtE5bACH4K3-28" edge="1">
          <mxGeometry width="50" height="50" relative="1" as="geometry">
            <mxPoint x="420" y="1800" as="sourcePoint" />
            <mxPoint x="590" y="1560" as="targetPoint" />
            <Array as="points">
              <mxPoint x="590" y="1935" />
            </Array>
          </mxGeometry>
        </mxCell>
        <mxCell id="3EsMmoUdwAtE5bACH4K3-64" value="" style="endArrow=classic;html=1;rounded=1;exitX=0.474;exitY=-0.014;exitDx=0;exitDy=0;exitPerimeter=0;" parent="1" source="3EsMmoUdwAtE5bACH4K3-24" edge="1">
          <mxGeometry width="50" height="50" relative="1" as="geometry">
            <mxPoint x="740" y="1470" as="sourcePoint" />
            <mxPoint x="360" y="200" as="targetPoint" />
            <Array as="points">
              <mxPoint x="740" y="200" />
            </Array>
          </mxGeometry>
        </mxCell>
        <mxCell id="3EsMmoUdwAtE5bACH4K3-67" value="" style="verticalLabelPosition=bottom;verticalAlign=top;html=1;shape=hexagon;perimeter=hexagonPerimeter2;arcSize=6;size=0.08064516129032258;" parent="1" vertex="1">
          <mxGeometry x="260" y="100" width="190" height="80" as="geometry" />
        </mxCell>
        <mxCell id="3EsMmoUdwAtE5bACH4K3-69" value="namabarang:char&lt;br style=&quot;font-size: 9px;&quot;&gt;kodebarang, jumlahbarang, &lt;br&gt;hargabarang :int&lt;br style=&quot;font-size: 9px;&quot;&gt;totalharga1, totalharga2,hargadiskon, &lt;br&gt;jumlahseluruhnya, uangkembalian,&amp;nbsp;&lt;br style=&quot;font-size: 9px;&quot;&gt;pembayaran : double&lt;br style=&quot;font-size: 9px;&quot;&gt;status : bolean" style="text;strokeColor=none;align=left;fillColor=none;html=1;verticalAlign=middle;whiteSpace=wrap;rounded=0;fontSize=9;" parent="1" vertex="1">
          <mxGeometry x="287.5" y="100" width="156.5" height="80" as="geometry" />
        </mxCell>
      </root>
    </mxGraphModel>
  </diagram>
</mxfile>
